<?xml version="1.0" standalone="no"?>
<!DOCTYPE svg PUBLIC "-//W3C//DTD SVG 20010904//EN"
 "http://www.w3.org/TR/2001/REC-SVG-20010904/DTD/svg10.dtd">
<svg version="1.0" xmlns="http://www.w3.org/2000/svg"
 width="1024.000000pt" height="1024.000000pt" viewBox="200 0 824 824"
 preserveAspectRatio="xMidYMid meet">

  <rect width="1024" height="1024" fill="#39b066"></rect>

<g transform="translate(0.000000,1024.000000) scale(0.1200,-0.1200)"
fill="#2b3138" stroke="none">
<path d="M0 5120 l0 -5120 5120 0 5120 0 0 5120 0 5120 -5120 0 -5120 0 0
-5120z m4088 2258 l2 -198 -37 -1 c-227 -5 -347 -57 -411 -176 -54 -103 -60
-164 -60 -603 1 -488 -11 -576 -102 -777 -66 -146 -195 -303 -331 -404 -41
-30 -69 -58 -69 -69 0 -11 25 -36 63 -63 168 -120 313 -315 376 -507 52 -158
53 -177 60 -680 l7 -475 25 -66 c59 -155 161 -220 370 -236 l104 -8 5 -194 c4
-148 2 -195 -7 -198 -7 -3 -108 -3 -225 0 -239 5 -300 17 -433 85 -128 66
-258 218 -314 368 -59 156 -63 191 -71 719 -8 539 -8 536 -75 683 -39 83 -54
104 -131 184 -55 56 -175 128 -239 142 -16 4 -47 12 -67 17 l-38 10 0 224 0
224 38 6 c193 31 357 161 442 348 62 137 62 139 69 667 3 267 9 490 13 495 3
6 9 27 12 48 45 283 222 507 462 587 112 38 200 48 384 47 l175 -2 3 -197z
m2552 173 c323 -82 505 -313 550 -696 5 -49 10 -263 10 -475 0 -220 4 -412 10
-448 15 -87 65 -221 109 -289 49 -76 149 -166 225 -202 61 -29 166 -64 166
-55 0 3 9 0 20 -6 19 -10 20 -21 20 -230 0 -245 9 -220 -84 -240 -153 -34
-302 -154 -376 -302 -83 -170 -82 -163 -90 -703 -4 -264 -11 -498 -15 -520
-18 -102 -49 -198 -90 -284 -62 -129 -170 -238 -297 -300 -132 -65 -234 -82
-466 -79 l-187 3 -3 192 -2 193 22 4 c13 2 73 9 133 15 190 19 287 88 336 239
20 61 22 92 25 337 9 713 9 716 72 895 64 183 219 389 370 490 78 52 78 67 4
118 -175 121 -333 346 -396 563 -40 139 -46 216 -50 649 -3 275 -8 434 -16
470 -26 118 -91 199 -199 248 -46 21 -75 26 -166 30 -60 2 -116 9 -122 14 -10
8 -13 59 -13 194 0 164 2 184 18 193 10 7 89 9 207 7 153 -3 206 -8 275 -25z"/>
</g>
</svg>
